# xmcd CD database file
# Copyright (C) 1995 Ti Kan
#
# Track frame offsets:
#	150
#	15034
#	34784
#	55010
#	78698
#	94844
#	118517
#	136608
#	160086
#	179798
#	203594
#
# Disc length: 3001 seconds
#
# Revision: 1
# Processed by: cddbd v1.4b41PL1 Copyright (c) Steve Scherf et al.
# Submitted via: NotifyCDPlayer(CDDB) 1.50
#
DISCID=800bb70b
DTITLE=Fink - No answers
DYEAR=1900
DGENRE=
TTITLE0=No answers
TTITLE1=Talk about it
TTITLE2=Day and night
TTITLE3=Without you
TTITLE4=Franky
TTITLE5=You're my light
TTITLE6=Use me '95
TTITLE7=Evil
TTITLE8=Conny
TTITLE9=60 years ago
TTITLE10=My head in the clouds
EXTD=
EXTT0=
EXTT1=
EXTT2=
EXTT3=
EXTT4=
EXTT5=
EXTT6=
EXTT7=
EXTT8=
EXTT9=
EXTT10=
PLAYORDER=
